<svg width="209" height="75" fill="none" xmlns="http://www.w3.org/2000/svg"><path d="M1.358 59.662V37.778h6.168v21.884H1.358zm1.254 0v-5.065h14.062v5.065H2.612zm10.13 0V44.54c0-.577-.125-1.007-.376-1.288-.251-.274-.635-.415-1.151-.415H5.32V37.77h7.658c1.129 0 2.14.237 3.033.719.892.481 1.6 1.244 2.117 2.288.517 1.044.782 2.43.782 4.14v14.746h-6.168zm8.234-7.939v-9.531L20.6 37.77h6.13l.407 4.422v6.013L27.1 50.59l-6.124 1.133zm8.544 15.5V49.228l.848-2.607h5.32v20.604H29.52zm8.035-7.524l-.473-5.065c.724-.052 1.336-.2 1.83-.452.495-.252.9-.615 1.218-1.096.317-.482.553-1.089.708-1.837a19.2 19.2 0 00.34-2.629l.339-5.784H29.962V37.77h18.202l-.206 4.318-.273 4.65a28.516 28.516 0 01-.59 4.726c-.325 1.54-.856 2.933-1.58 4.177a7.976 7.976 0 01-3.017 2.97c-1.284.725-2.936 1.088-4.943 1.088zm14.741.341l-1.763-17.197 5.865-2.947 1.291 14.1c.996-.073 1.8-.236 2.42-.488.62-.252 1.093-.585 1.424-1 .325-.415.554-.903.68-1.474.125-.57.191-1.2.206-1.888.015-.696.007-1.444-.015-2.252V45.65c0-.63-.081-1.148-.25-1.548-.17-.4-.392-.71-.665-.925a1.492 1.492 0 00-.951-.319H50.532l-.576-5.066h11.016c2.376 0 4.198.704 5.474 2.119 1.277 1.414 1.948 3.355 2.015 5.82l.036 1.326c.067 2.34-.25 4.325-.951 5.932-.701 1.615-1.749 2.926-3.15 3.933-1.403 1.007-3.122 1.763-5.15 2.266-2.037.49-4.354.778-6.95.852zm16.778 1.281l-.849-5.332 8.876-1.851c.996-.2 1.771-.57 2.34-1.119.567-.54.988-1.251 1.268-2.133.28-.881.472-1.955.561-3.214.089-1.259.133-2.718.118-4.362-.015-1.652-.015-3.496-.015-5.54h6.102c0 2.296-.037 4.444-.103 6.444-.067 2.007-.251 3.843-.561 5.517-.303 1.674-.812 3.17-1.527 4.48-.709 1.311-1.72 2.422-3.018 3.326-1.299.903-2.988 1.585-5.069 2.044l-8.123 1.74zm4.33-5.665l-3.762-17.878h6.168l3.46 17.878h-5.865zm15.797-12.813V32.556h5.49v10.28H89.2v.007zm3.594 16.82l5.828-16.82h-9.422v-5.065h15.59v5.591l-5.828 16.293h-6.168zm28.095 0V44.538c0-.577-.125-1.007-.376-1.288-.251-.274-.634-.415-1.151-.415h-6.95V37.77h8.714c1.128 0 2.139.237 3.032.719.893.481 1.601 1.244 2.117 2.288.517 1.044.783 2.43.783 4.14v14.738h-6.169v.007zm8.234 0V42.198l-.376-4.421h6.131l.406 4.421v17.463h-6.161zm8.205-16.82V32.556h5.489v10.28h-5.489v.007zm3.593 16.82l5.829-16.82h-9.422v-5.065h15.59v5.591l-5.829 16.293h-6.168zm21.618 0V47.264c0-1.03.088-1.926.273-2.681.177-.756.421-1.333.708-1.74h-8.234v-5.066h16.638v5.065h-2.678c-.229.63-.377 1.356-.443 2.17-.066.822-.103 1.57-.103 2.252v12.397h-6.161zm11.694.792l-2.235-5.37c1.741-.577 3.143-1.288 4.22-2.133 1.07-.844 1.845-1.77 2.324-2.777l2.036 3.4a24.04 24.04 0 01-1.409 2.873 8.845 8.845 0 01-1.933 2.326c-.782.666-1.785 1.229-3.003 1.68zm5.593-.793l-1.358-8.96v-6.126c0-.807-.125-1.325-.376-1.57-.251-.237-.598-.385-1.048-.437l-2.102-.303.745-4.992 4.641.644c1.401.178 2.471.748 3.202 1.719.73.97 1.099 2.34 1.099 4.102v7.11l1.018 8.806h-5.821v.007zm8.064 0l2.273-14.478-2.745-7.406h6.404l2.169 7.783-1.933 14.101h-6.168zm8.064.037l.539-5.065c1.579.377 2.767.37 3.556-.023.79-.392 1.328-1.088 1.609-2.095.28-1.008.42-2.23.42-3.666 0-1.415-.11-2.57-.324-3.481-.214-.904-.554-1.578-1.019-2.022-.464-.437-1.077-.66-1.844-.66-.45 0-.885.105-1.306.305a2.77 2.77 0 00-1.07.925c-.295.415-.472.963-.538 1.644l-1.292-2.718c.451-1.94 1.181-3.347 2.184-4.214 1.004-.866 2.133-1.303 3.372-1.303 1.313 0 2.442.252 3.409.755.959.504 1.756 1.245 2.39 2.23.635.984 1.1 2.192 1.41 3.629.302 1.436.457 3.073.457 4.91 0 2.695-.472 4.976-1.409 6.843-.937 1.866-2.302 3.17-4.088 3.91-1.763.748-3.925.778-6.456.096z" fill="#143B51"/><path d="M23.44 0l2.088 29.298h67.067l50.459-.193L23.44 0z" fill="#FEDD00"/><path d="M43.767 75l-.074-.46c.428-.036.768-.147 1.026-.332.258-.186.435-.445.553-.77a3.43 3.43 0 00.155-1.156v-6.791h3.165c.51 0 .952.103 1.328.303.377.208.672.541.878 1 .207.46.318 1.082.318 1.852v6.14h-.487v-6.133c0-1-.192-1.688-.576-2.074-.383-.377-.878-.57-1.49-.57h-2.649v6.258c0 .533-.074 1-.221 1.392a1.931 1.931 0 01-.686.919c-.318.222-.73.363-1.24.422zm9.392-.207V67.49l-.214-2h.487l.214 2v7.303h-.487zm6.611 0v-6.14c0-1-.192-1.688-.575-2.074-.384-.377-.878-.57-1.49-.57H55.18v-.51h2.553c.509 0 .952.103 1.328.303.376.207.671.54.878 1 .206.459.317 1.08.317 1.851v6.14h-.487zm6.825 0v-6.14c0-1-.192-1.688-.576-2.074-.383-.377-.878-.57-1.49-.57h-2.582v-.51h2.619c.509 0 .952.103 1.328.303.376.207.671.54.878 1 .207.459.317 1.08.317 1.851v6.14h-.494zm-4.648 0v-.511h6.271v.51h-6.271zm13.074 0v-5.8c0-1.991-.686-2.984-2.066-2.984h-3.446v-.51h3.475c.554 0 1.019.133 1.395.392.376.259.656.651.848 1.17.192.518.28 1.163.28 1.933v5.799h-.486zm-5.504 0v-9.295h.487V74.8h-.487v-.007zm9.82.207l-.074-.46c.428-.036.767-.147 1.026-.332.258-.186.435-.445.553-.77.11-.326.162-.712.155-1.156v-6.791h3.165c.51 0 .952.103 1.328.303.377.208.672.541.878 1 .207.46.318 1.082.318 1.852v6.14h-.487v-6.133c0-1-.192-1.688-.576-2.074-.384-.377-.878-.57-1.49-.57h-2.649v6.258c0 .533-.074 1-.221 1.392a1.93 1.93 0 01-.687.919c-.317.222-.73.363-1.24.422zm14.609-.207v-5.8c0-1.991-.687-2.984-2.066-2.984h-3.446v-.51h3.475c.554 0 1.018.133 1.395.392.376.259.656.651.848 1.17.192.518.28 1.163.28 1.933v5.799h-.486zm-5.504 0v-9.295h.487V74.8h-.487v-.007zm12.328 0v-6.14c0-1-.191-1.688-.575-2.074-.384-.377-.878-.57-1.49-.57h-2.583v-.51h2.62c.508 0 .951.103 1.327.303.377.207.672.54.878 1 .207.459.318 1.08.318 1.851v6.14h-.495zm-4.648 0v-.511h6.272v.51h-6.272zm8.367.17l-1.026-9.472h.487l.982 8.91c.819-.06 1.549-.223 2.213-.497a4.667 4.667 0 001.697-1.2c.472-.526.834-1.207 1.085-2.036.25-.83.369-1.83.361-2.985l-.015-2.185h.487l.015 2.185c.007 1.637-.229 2.984-.708 4.036-.487 1.052-1.195 1.844-2.132 2.37-.945.526-2.088.822-3.446.874zm-.059-3.547l-.111-.511a9.266 9.266 0 001.446-1.111 3.46 3.46 0 00.834-1.326c.185-.519.288-1.178.303-1.985l.014-.94h.487l-.014.94c-.023.889-.141 1.63-.355 2.215a3.935 3.935 0 01-.966 1.51c-.421.422-.967.822-1.638 1.207zm13.244 3.377v-6.14c0-1-.192-1.688-.576-2.074-.383-.377-.878-.57-1.49-.57h-3.306v-.51h3.335c.509 0 .952.103 1.328.303.377.207.672.54.878 1 .207.459.318 1.08.318 1.851v6.14h-.487zm-5.335 0v-4.57l.074-1.14h.413v5.71h-.487zm7.356-8.784v-3.444h.487v3.444h-.487zm1.882 8.784l3.091-8.784h-4.973v-.51h5.46v.51l-3.091 8.784h-.487zm12.926 0v-6.14c0-1-.192-1.688-.575-2.074-.384-.377-.878-.57-1.491-.57h-3.305v-.51h3.335c.509 0 .952.103 1.328.303.376.207.671.54.878 1 .206.459.317 1.08.317 1.851v6.14h-.487zm-5.342 0v-4.57l.074-1.14h.413v5.71h-.487zm11.953 0v-6.14c0-1-.192-1.688-.576-2.074-.383-.377-.878-.57-1.49-.57h-2.523v-.51h2.553c.509 0 .951.103 1.328.303.376.207.671.54.878 1 .206.459.317 1.08.317 1.851v6.14h-.487zm6.817 0v-6.14c0-1-.192-1.688-.575-2.074-.384-.377-.878-.57-1.491-.57h-2.582v-.51h2.619c.509 0 .952.103 1.328.303.377.207.672.54.878 1 .207.459.318 1.08.318 1.851v6.14h-.495zm-4.648 0v-.511h6.272v.51h-6.272zm13.082 0v-5.8c0-1.991-.687-2.984-2.066-2.984h-3.446v-.51h3.475c.554 0 1.018.133 1.395.392.376.259.656.651.848 1.17.192.518.28 1.163.28 1.933v5.799h-.486zm-5.512 0v-9.295h.487V74.8h-.487v-.007zm13.126 0v-6.14c0-1-.192-1.688-.576-2.074-.383-.377-.878-.57-1.49-.57h-3.306v-.51h3.335c.509 0 .952.103 1.328.303.377.207.672.54.878 1 .207.459.318 1.08.318 1.851v6.14h-.487zm-5.335 0v-4.57l.074-1.14h.413v5.71h-.487z" fill="#143B51"/></svg>