<svg width="284" height="102" fill="none" xmlns="http://www.w3.org/2000/svg"><g clip-path="url(#clip0_9_53)"><path d="M1.84 80.56V51.01h8.36v29.55H1.84zm1.7 0v-6.84H22.6v6.84H3.54zm13.73 0V60.14c0-.78-.17-1.36-.51-1.74-.34-.37-.86-.56-1.56-.56H7.21V51h10.38c1.53 0 2.9.32 4.11.97 1.21.65 2.17 1.68 2.87 3.09.7 1.41 1.06 3.28 1.06 5.59v19.91h-8.36zm11.16-10.72V56.97L27.92 51h8.31l.55 5.97v8.12l-.05 3.22-8.3 1.53zm11.58 20.93v-24.3l1.15-3.52h7.21v27.82h-8.36zM50.9 80.61l-.64-6.84c.98-.07 1.81-.27 2.48-.61.67-.34 1.22-.83 1.65-1.48.43-.65.75-1.47.96-2.48.21-1 .37-2.19.46-3.55l.46-7.81H40.61V51h24.67L65 56.83l-.37 6.28c-.09 2.18-.36 4.3-.8 6.38-.44 2.08-1.16 3.96-2.14 5.64-.98 1.68-2.34 3.02-4.09 4.01-1.74.98-3.98 1.47-6.7 1.47zm19.98.46l-2.39-23.22 7.95-3.98 1.75 19.04c1.35-.1 2.44-.32 3.28-.66.84-.34 1.48-.79 1.93-1.35.44-.56.75-1.22.92-1.99.17-.77.26-1.62.28-2.55.02-.94.01-1.95-.02-3.04v-1.68c0-.85-.11-1.55-.34-2.09-.23-.54-.53-.96-.9-1.25-.37-.29-.8-.43-1.29-.43H68.49l-.78-6.84h14.93c3.22 0 5.69.95 7.42 2.86 1.73 1.91 2.64 4.53 2.73 7.86l.05 1.79c.09 3.16-.34 5.84-1.29 8.01-.95 2.18-2.37 3.95-4.27 5.31-1.9 1.36-4.23 2.38-6.98 3.06-2.76.66-5.9 1.05-9.42 1.15zm22.74 1.73l-1.15-7.2 12.03-2.5c1.35-.27 2.4-.77 3.17-1.51.77-.73 1.34-1.69 1.72-2.88.38-1.19.64-2.64.76-4.34.12-1.7.18-3.67.16-5.89-.02-2.23-.02-4.72-.02-7.48h8.27c0 3.1-.05 6-.14 8.7-.09 2.71-.34 5.19-.76 7.45-.41 2.26-1.1 4.28-2.07 6.05-.96 1.77-2.33 3.27-4.09 4.49-1.76 1.22-4.05 2.14-6.87 2.76L93.62 82.8zm5.87-7.65l-5.1-24.14h8.36l4.69 24.14h-7.95zm21.41-17.3V43.96h7.44v13.88h-7.44v.01zm4.87 22.71l7.9-22.71H120.9v-6.84h21.13v7.55l-7.9 22h-8.36zm38.08 0V60.14c0-.78-.17-1.36-.51-1.74-.34-.37-.86-.56-1.56-.56h-9.42V51h11.81c1.53 0 2.9.32 4.11.97 1.21.65 2.17 1.68 2.87 3.09.7 1.41 1.06 3.28 1.06 5.59v19.9h-8.36v.01zm11.16 0V56.98l-.51-5.97h8.31l.55 5.97v23.58h-8.35zm11.12-22.71V43.96h7.44v13.88h-7.44v.01zM191 80.56l7.9-22.71h-12.77v-6.84h21.13v7.55l-7.9 22H191zm29.3 0V63.82c0-1.39.12-2.6.37-3.62.24-1.02.57-1.8.96-2.35h-11.16v-6.84h22.55v6.84h-3.63c-.31.85-.51 1.83-.6 2.93-.09 1.11-.14 2.12-.14 3.04v16.74h-8.35zm15.85 1.07l-3.03-7.25c2.36-.78 4.26-1.74 5.72-2.88 1.45-1.14 2.5-2.39 3.15-3.75l2.76 4.59c-.58 1.4-1.22 2.69-1.91 3.88s-1.56 2.24-2.62 3.14c-1.06.9-2.42 1.66-4.07 2.27zm7.58-1.07l-1.84-12.1v-8.27c0-1.09-.17-1.79-.51-2.12-.34-.32-.81-.52-1.42-.59l-2.85-.41 1.01-6.74 6.29.87c1.9.24 3.35 1.01 4.34 2.32.99 1.31 1.49 3.16 1.49 5.54v9.6l1.38 11.89h-7.89v.01zm10.93 0l3.08-19.55-3.72-10h8.68l2.94 10.51-2.62 19.04h-8.36zm10.93.05l.73-6.84c2.14.51 3.75.5 4.82-.03 1.07-.53 1.8-1.47 2.18-2.83.38-1.36.57-3.01.57-4.95 0-1.91-.15-3.47-.44-4.7-.29-1.22-.75-2.13-1.38-2.73-.63-.59-1.46-.89-2.5-.89-.61 0-1.2.14-1.77.41-.57.27-1.05.69-1.45 1.25-.4.56-.64 1.3-.73 2.22l-1.75-3.67c.61-2.62 1.6-4.52 2.96-5.69 1.36-1.17 2.89-1.76 4.57-1.76 1.78 0 3.31.34 4.62 1.02 1.3.68 2.38 1.68 3.24 3.01.86 1.33 1.49 2.96 1.91 4.9.41 1.94.62 4.15.62 6.63 0 3.64-.64 6.72-1.91 9.24-1.27 2.52-3.12 4.28-5.54 5.28-2.39 1.01-5.32 1.05-8.75.13z" fill="#fff"/><path d="M31.77 0l2.83 39.56h90.9l68.39-.26L31.77 0zm27.55 101.27l-.1-.62c.58-.05 1.04-.2 1.39-.45.35-.25.59-.6.75-1.04.15-.44.22-.96.21-1.56v-9.17h4.29c.69 0 1.29.14 1.8.41.51.28.91.73 1.19 1.35.28.62.43 1.46.43 2.5v8.29h-.66V92.7c0-1.35-.26-2.28-.78-2.8-.52-.51-1.19-.77-2.02-.77h-3.59v8.45c0 .72-.1 1.35-.3 1.88-.2.53-.51.94-.93 1.24-.43.3-.99.49-1.68.57zm12.73-.28v-9.86l-.29-2.7h.66l.29 2.7v9.86h-.66zm8.96 0V92.7c0-1.35-.26-2.28-.78-2.8-.52-.51-1.19-.77-2.02-.77h-3.42v-.69h3.46c.69 0 1.29.14 1.8.41.51.28.91.73 1.19 1.35.28.62.43 1.46.43 2.5v8.29h-.66zm9.25 0V92.7c0-1.35-.26-2.28-.78-2.8-.52-.51-1.19-.77-2.02-.77h-3.5v-.69h3.55c.69 0 1.29.14 1.8.41.51.28.91.73 1.19 1.35.28.62.43 1.46.43 2.5v8.29h-.67zm-6.3 0v-.69h8.5v.69h-8.5zm17.72 0v-7.83c0-2.69-.93-4.03-2.8-4.03h-4.67v-.69h4.71c.75 0 1.38.18 1.89.53.51.35.89.88 1.15 1.58.26.7.38 1.57.38 2.61v7.83h-.66zm-7.46 0V88.44h.66V101h-.66v-.01zm13.31.28l-.1-.62c.58-.05 1.04-.2 1.39-.45.35-.25.59-.6.75-1.04.15-.44.22-.96.21-1.56v-9.17h4.29c.69 0 1.29.14 1.8.41.51.28.91.73 1.19 1.35.28.62.43 1.46.43 2.5v8.29h-.66V92.7c0-1.35-.26-2.28-.78-2.8-.52-.51-1.19-.77-2.02-.77h-3.59v8.45c0 .72-.1 1.35-.3 1.88-.2.53-.51.94-.93 1.24-.43.3-.99.49-1.68.57zm19.8-.28v-7.83c0-2.69-.93-4.03-2.8-4.03h-4.67v-.69h4.71c.75 0 1.38.18 1.89.53.51.35.89.88 1.15 1.58.26.7.38 1.57.38 2.61v7.83h-.66zm-7.46 0V88.44h.66V101h-.66v-.01zm16.71 0V92.7c0-1.35-.26-2.28-.78-2.8-.52-.51-1.19-.77-2.02-.77h-3.5v-.69h3.55c.69 0 1.29.14 1.8.41.51.28.91.73 1.19 1.35.28.62.43 1.46.43 2.5v8.29h-.67zm-6.3 0v-.69h8.5v.69h-8.5zm11.34.23l-1.39-12.79h.66l1.33 12.03c1.11-.08 2.1-.3 3-.67.89-.37 1.66-.91 2.3-1.62.64-.71 1.13-1.63 1.47-2.75.34-1.12.5-2.47.49-4.03l-.02-2.95h.66l.02 2.95c.01 2.21-.31 4.03-.96 5.45-.66 1.42-1.62 2.49-2.89 3.2-1.28.71-2.83 1.11-4.67 1.18zm-.08-4.79l-.15-.69c.8-.51 1.45-1.01 1.96-1.5.5-.49.88-1.09 1.13-1.79.25-.7.39-1.59.41-2.68l.02-1.27h.66l-.02 1.27c-.03 1.2-.19 2.2-.48 2.99-.29.8-.73 1.48-1.31 2.04-.57.57-1.31 1.11-2.22 1.63zm17.95 4.56V92.7c0-1.35-.26-2.28-.78-2.8-.52-.51-1.19-.77-2.02-.77h-4.48v-.69h4.52c.69 0 1.29.14 1.8.41.51.28.91.73 1.19 1.35.28.62.43 1.46.43 2.5v8.29h-.66zm-7.23 0v-6.17l.1-1.54h.56v7.71h-.66zm9.97-11.86v-4.65h.66v4.65h-.66zm2.55 11.86l4.19-11.86h-6.74v-.69h7.4v.69l-4.19 11.86h-.66zm17.52 0V92.7c0-1.35-.26-2.28-.78-2.8-.52-.51-1.19-.77-2.02-.77h-4.48v-.69h4.52c.69 0 1.29.14 1.8.41.51.28.91.73 1.19 1.35.28.62.43 1.46.43 2.5v8.29h-.66zm-7.24 0v-6.17l.1-1.54h.56v7.71h-.66zm16.2 0V92.7c0-1.35-.26-2.28-.78-2.8-.52-.51-1.19-.77-2.02-.77h-3.42v-.69h3.46c.69 0 1.29.14 1.8.41.51.28.91.73 1.19 1.35.28.62.43 1.46.43 2.5v8.29h-.66zm9.24 0V92.7c0-1.35-.26-2.28-.78-2.8-.52-.51-1.19-.77-2.02-.77h-3.5v-.69h3.55c.69 0 1.29.14 1.8.41.51.28.91.73 1.19 1.35.28.62.43 1.46.43 2.5v8.29h-.67zm-6.3 0v-.69h8.5v.69h-8.5zm17.73 0v-7.83c0-2.69-.93-4.03-2.8-4.03h-4.67v-.69h4.71c.75 0 1.38.18 1.89.53.51.35.89.88 1.15 1.58.26.7.38 1.57.38 2.61v7.83h-.66zm-7.47 0V88.44h.66V101h-.66v-.01zm17.79 0V92.7c0-1.35-.26-2.28-.78-2.8-.52-.51-1.19-.77-2.02-.77h-4.48v-.69h4.52c.69 0 1.29.14 1.8.41.51.28.91.73 1.19 1.35.28.62.43 1.46.43 2.5v8.29h-.66zm-7.23 0v-6.17l.1-1.54h.56v7.71h-.66z" fill="#FEDD00"/></g><defs><clipPath id="clip0_9_53"><path fill="#fff" d="M0 0h283.27v101.27H0z"/></clipPath></defs></svg>