<svg width="284" height="102" viewBox="0 0 284 102" fill="none" xmlns="http://www.w3.org/2000/svg">
<g clip-path="url(#clip0_9_53)">
<path d="M1.84 80.56V56.47V51.01H10.2V56.98V80.56H1.84ZM3.54 80.56V73.72H22.6V80.56H3.54ZM17.27 80.56V60.14C17.27 59.36 17.1 58.78 16.76 58.4C16.42 58.03 15.9 57.84 15.2 57.84H7.21V51H17.59C19.12 51 20.49 51.32 21.7 51.97C22.91 52.62 23.87 53.65 24.57 55.06C25.27 56.47 25.63 58.34 25.63 60.65V74.89V80.56H17.27ZM28.43 69.84V65.09V56.97L27.92 51H36.23L36.78 56.97V65.09L36.73 68.31L28.43 69.84ZM40.01 90.77V66.47L41.16 62.95H48.37V66.42V90.77H40.01ZM50.9 80.61L50.26 73.77C51.24 73.7 52.07 73.5 52.74 73.16C53.41 72.82 53.96 72.33 54.39 71.68C54.82 71.03 55.14 70.21 55.35 69.2C55.56 68.2 55.72 67.01 55.81 65.65L56.27 57.84H40.61V51H65.28L65 56.83L64.63 63.11C64.54 65.29 64.27 67.41 63.83 69.49C63.39 71.57 62.67 73.45 61.69 75.13C60.71 76.81 59.35 78.15 57.6 79.14C55.86 80.12 53.62 80.61 50.9 80.61ZM70.88 81.07L68.49 57.85L76.44 53.87L78.19 72.91C79.54 72.81 80.63 72.59 81.47 72.25C82.31 71.91 82.95 71.46 83.4 70.9C83.84 70.34 84.15 69.68 84.32 68.91C84.49 68.14 84.58 67.29 84.6 66.36C84.62 65.42 84.61 64.41 84.58 63.32V61.64C84.58 60.79 84.47 60.09 84.24 59.55C84.01 59.01 83.71 58.59 83.34 58.3C82.97 58.01 82.54 57.87 82.05 57.87H68.49L67.71 51.03H82.64C85.86 51.03 88.33 51.98 90.06 53.89C91.79 55.8 92.7 58.42 92.79 61.75L92.84 63.54C92.93 66.7 92.5 69.38 91.55 71.55C90.6 73.73 89.18 75.5 87.28 76.86C85.38 78.22 83.05 79.24 80.3 79.92C77.54 80.58 74.4 80.97 70.88 81.07ZM93.62 82.8L92.47 75.6L104.5 73.1C105.85 72.83 106.9 72.33 107.67 71.59C108.44 70.86 109.01 69.9 109.39 68.71C109.77 67.52 110.03 66.07 110.15 64.37C110.27 62.67 110.33 60.7 110.31 58.48C110.29 56.25 110.29 53.76 110.29 51H118.56C118.56 54.1 118.51 57 118.42 59.7C118.33 62.41 118.08 64.89 117.66 67.15C117.25 69.41 116.56 71.43 115.59 73.2C114.63 74.97 113.26 76.47 111.5 77.69C109.74 78.91 107.45 79.83 104.63 80.45L93.62 82.8ZM99.49 75.15L94.39 51.01H102.75L107.44 75.15H99.49ZM120.9 57.85V43.96H128.34V57.84H120.9V57.85ZM125.77 80.56L133.67 57.85H120.9V51.01H142.03V58.56L134.13 80.56H125.77ZM163.85 80.56V60.14C163.85 59.36 163.68 58.78 163.34 58.4C163 58.03 162.48 57.84 161.78 57.84H152.36V51H164.17C165.7 51 167.07 51.32 168.28 51.97C169.49 52.62 170.45 53.65 171.15 55.06C171.85 56.47 172.21 58.34 172.21 60.65V80.55H163.85V80.56ZM175.01 80.56V56.98L174.5 51.01H182.81L183.36 56.98V80.56H175.01ZM186.13 57.85V43.96H193.57V57.84H186.13V57.85ZM191 80.56L198.9 57.85H186.13V51.01H207.26V58.56L199.36 80.56H191ZM220.3 80.56V63.82C220.3 62.43 220.42 61.22 220.67 60.2C220.91 59.18 221.24 58.4 221.63 57.85H210.47V51.01H233.02V57.85H229.39C229.08 58.7 228.88 59.68 228.79 60.78C228.7 61.89 228.65 62.9 228.65 63.82V80.56H220.3ZM236.15 81.63L233.12 74.38C235.48 73.6 237.38 72.64 238.84 71.5C240.29 70.36 241.34 69.11 241.99 67.75L244.75 72.34C244.17 73.74 243.53 75.03 242.84 76.22C242.15 77.41 241.28 78.46 240.22 79.36C239.16 80.26 237.8 81.02 236.15 81.63ZM243.73 80.56L241.89 68.46V60.19C241.89 59.1 241.72 58.4 241.38 58.07C241.04 57.75 240.57 57.55 239.96 57.48L237.11 57.07L238.12 50.33L244.41 51.2C246.31 51.44 247.76 52.21 248.75 53.52C249.74 54.83 250.24 56.68 250.24 59.06V68.66L251.62 80.55H243.73V80.56ZM254.66 80.56L257.74 61.01L254.02 51.01H262.7L265.64 61.52L263.02 80.56H254.66ZM265.59 80.61L266.32 73.77C268.46 74.28 270.07 74.27 271.14 73.74C272.21 73.21 272.94 72.27 273.32 70.91C273.7 69.55 273.89 67.9 273.89 65.96C273.89 64.05 273.74 62.49 273.45 61.26C273.16 60.04 272.7 59.13 272.07 58.53C271.44 57.94 270.61 57.64 269.57 57.64C268.96 57.64 268.37 57.78 267.8 58.05C267.23 58.32 266.75 58.74 266.35 59.3C265.95 59.86 265.71 60.6 265.62 61.52L263.87 57.85C264.48 55.23 265.47 53.33 266.83 52.16C268.19 50.99 269.72 50.4 271.4 50.4C273.18 50.4 274.71 50.74 276.02 51.42C277.32 52.1 278.4 53.1 279.26 54.43C280.12 55.76 280.75 57.39 281.17 59.33C281.58 61.27 281.79 63.48 281.79 65.96C281.79 69.6 281.15 72.68 279.88 75.2C278.61 77.72 276.76 79.48 274.34 80.48C271.95 81.49 269.02 81.53 265.59 80.61Z" fill="white"/>
<path d="M31.77 0L34.6 39.56H125.5L193.89 39.3L31.77 0Z" fill="#FEDD00"/>
<path d="M59.32 101.27L59.22 100.65C59.8 100.6 60.26 100.45 60.61 100.2C60.96 99.95 61.2 99.6 61.36 99.16C61.51 98.72 61.58 98.2 61.57 97.6V88.43H65.86C66.55 88.43 67.15 88.57 67.66 88.84C68.17 89.12 68.57 89.57 68.85 90.19C69.13 90.81 69.28 91.65 69.28 92.69V100.98H68.62V92.7C68.62 91.35 68.36 90.42 67.84 89.9C67.32 89.39 66.65 89.13 65.82 89.13H62.23V97.58C62.23 98.3 62.13 98.93 61.93 99.46C61.73 99.99 61.42 100.4 61 100.7C60.57 101 60.01 101.19 59.32 101.27ZM72.05 100.99V91.13L71.76 88.43H72.42L72.71 91.13V100.99H72.05ZM81.01 100.99V92.7C81.01 91.35 80.75 90.42 80.23 89.9C79.71 89.39 79.04 89.13 78.21 89.13H74.79V88.44H78.25C78.94 88.44 79.54 88.58 80.05 88.85C80.56 89.13 80.96 89.58 81.24 90.2C81.52 90.82 81.67 91.66 81.67 92.7V100.99H81.01ZM90.26 100.99V92.7C90.26 91.35 90 90.42 89.48 89.9C88.96 89.39 88.29 89.13 87.46 89.13H83.96V88.44H87.51C88.2 88.44 88.8 88.58 89.31 88.85C89.82 89.13 90.22 89.58 90.5 90.2C90.78 90.82 90.93 91.66 90.93 92.7V100.99H90.26ZM83.96 100.99V100.3H92.46V100.99H83.96ZM101.68 100.99V93.16C101.68 90.47 100.75 89.13 98.88 89.13H94.21V88.44H98.92C99.67 88.44 100.3 88.62 100.81 88.97C101.32 89.32 101.7 89.85 101.96 90.55C102.22 91.25 102.34 92.12 102.34 93.16V100.99H101.68ZM94.22 100.99V88.44H94.88V101H94.22V100.99ZM107.53 101.27L107.43 100.65C108.01 100.6 108.47 100.45 108.82 100.2C109.17 99.95 109.41 99.6 109.57 99.16C109.72 98.72 109.79 98.2 109.78 97.6V88.43H114.07C114.76 88.43 115.36 88.57 115.87 88.84C116.38 89.12 116.78 89.57 117.06 90.19C117.34 90.81 117.49 91.65 117.49 92.69V100.98H116.83V92.7C116.83 91.35 116.57 90.42 116.05 89.9C115.53 89.39 114.86 89.13 114.03 89.13H110.44V97.58C110.44 98.3 110.34 98.93 110.14 99.46C109.94 99.99 109.63 100.4 109.21 100.7C108.78 101 108.22 101.19 107.53 101.27ZM127.33 100.99V93.16C127.33 90.47 126.4 89.13 124.53 89.13H119.86V88.44H124.57C125.32 88.44 125.95 88.62 126.46 88.97C126.97 89.32 127.35 89.85 127.61 90.55C127.87 91.25 127.99 92.12 127.99 93.16V100.99H127.33ZM119.87 100.99V88.44H120.53V101H119.87V100.99ZM136.58 100.99V92.7C136.58 91.35 136.32 90.42 135.8 89.9C135.28 89.39 134.61 89.13 133.78 89.13H130.28V88.44H133.83C134.52 88.44 135.12 88.58 135.63 88.85C136.14 89.13 136.54 89.58 136.82 90.2C137.1 90.82 137.25 91.66 137.25 92.7V100.99H136.58ZM130.28 100.99V100.3H138.78V100.99H130.28ZM141.62 101.22L140.23 88.43H140.89L142.22 100.46C143.33 100.38 144.32 100.16 145.22 99.79C146.11 99.42 146.88 98.88 147.52 98.17C148.16 97.46 148.65 96.54 148.99 95.42C149.33 94.3 149.49 92.95 149.48 91.39L149.46 88.44H150.12L150.14 91.39C150.15 93.6 149.83 95.42 149.18 96.84C148.52 98.26 147.56 99.33 146.29 100.04C145.01 100.75 143.46 101.15 141.62 101.22ZM141.54 96.43L141.39 95.74C142.19 95.23 142.84 94.73 143.35 94.24C143.85 93.75 144.23 93.15 144.48 92.45C144.73 91.75 144.87 90.86 144.89 89.77L144.91 88.5H145.57L145.55 89.77C145.52 90.97 145.36 91.97 145.07 92.76C144.78 93.56 144.34 94.24 143.76 94.8C143.19 95.37 142.45 95.91 141.54 96.43ZM159.49 100.99V92.7C159.49 91.35 159.23 90.42 158.71 89.9C158.19 89.39 157.52 89.13 156.69 89.13H152.21V88.44H156.73C157.42 88.44 158.02 88.58 158.53 88.85C159.04 89.13 159.44 89.58 159.72 90.2C160 90.82 160.15 91.66 160.15 92.7V100.99H159.49ZM152.26 100.99V94.82L152.36 93.28H152.92V94.82V100.99H152.26ZM162.23 89.13V84.48H162.89V89.13H162.23ZM164.78 100.99L168.97 89.13H162.23V88.44H169.63V89.13L165.44 100.99H164.78ZM182.3 100.99V92.7C182.3 91.35 182.04 90.42 181.52 89.9C181 89.39 180.33 89.13 179.5 89.13H175.02V88.44H179.54C180.23 88.44 180.83 88.58 181.34 88.85C181.85 89.13 182.25 89.58 182.53 90.2C182.81 90.82 182.96 91.66 182.96 92.7V100.99H182.3ZM175.06 100.99V94.82L175.16 93.28H175.72V94.82V100.99H175.06ZM191.26 100.99V92.7C191.26 91.35 191 90.42 190.48 89.9C189.96 89.39 189.29 89.13 188.46 89.13H185.04V88.44H188.5C189.19 88.44 189.79 88.58 190.3 88.85C190.81 89.13 191.21 89.58 191.49 90.2C191.77 90.82 191.92 91.66 191.92 92.7V100.99H191.26ZM200.5 100.99V92.7C200.5 91.35 200.24 90.42 199.72 89.9C199.2 89.39 198.53 89.13 197.7 89.13H194.2V88.44H197.75C198.44 88.44 199.04 88.58 199.55 88.85C200.06 89.13 200.46 89.58 200.74 90.2C201.02 90.82 201.17 91.66 201.17 92.7V100.99H200.5ZM194.2 100.99V100.3H202.7V100.99H194.2ZM211.93 100.99V93.16C211.93 90.47 211 89.13 209.13 89.13H204.46V88.44H209.17C209.92 88.44 210.55 88.62 211.06 88.97C211.57 89.32 211.95 89.85 212.21 90.55C212.47 91.25 212.59 92.12 212.59 93.16V100.99H211.93ZM204.46 100.99V88.44H205.12V101H204.46V100.99ZM222.25 100.99V92.7C222.25 91.35 221.99 90.42 221.47 89.9C220.95 89.39 220.28 89.13 219.45 89.13H214.97V88.44H219.49C220.18 88.44 220.78 88.58 221.29 88.85C221.8 89.13 222.2 89.58 222.48 90.2C222.76 90.82 222.91 91.66 222.91 92.7V100.99H222.25ZM215.02 100.99V94.82L215.12 93.28H215.68V94.82V100.99H215.02Z" fill="#FEDD00"/>
</g>
<defs>
<clipPath id="clip0_9_53">
<rect width="283.27" height="101.27" fill="white"/>
</clipPath>
</defs>
</svg>
