<svg width="209" height="75" viewBox="0 0 209 75" fill="none" xmlns="http://www.w3.org/2000/svg">
<path d="M1.35754 59.6623V41.8214V37.7777H7.52565V42.1991V59.6623H1.35754ZM2.61182 59.6623V54.5966H16.6745V59.6623H2.61182ZM12.742 59.6623V44.5394C12.742 43.9617 12.6166 43.5321 12.3657 43.2507C12.1148 42.9767 11.7312 42.836 11.2147 42.836H5.31959V37.7703H12.9781C14.1069 37.7703 15.1177 38.0073 16.0105 38.4887C16.9032 38.9701 17.6115 39.7329 18.128 40.7771C18.6445 41.8214 18.9101 43.2063 18.9101 44.9171V55.4631V59.6623H12.742ZM20.976 51.7231V48.2053V42.1917L20.5997 37.7703H26.7309L27.1367 42.1917V48.2053L27.0998 50.59L20.976 51.7231ZM29.5198 67.2238V49.2273L30.3683 46.6204H35.6879V49.1903V67.2238H29.5198ZM37.5546 59.6993L37.0824 54.6337C37.8055 54.5818 38.4178 54.4337 38.9122 54.1819C39.4065 53.9301 39.8123 53.5672 40.1296 53.0858C40.4468 52.6044 40.6829 51.9971 40.8379 51.2491C40.9928 50.5085 41.1109 49.6272 41.1773 48.62L41.5167 42.836H29.9625V37.7703H48.1643L47.9578 42.088L47.6848 46.7389C47.6184 48.3534 47.4192 49.9235 47.0945 51.4639C46.7699 53.0043 46.2386 54.3967 45.5156 55.6409C44.7925 56.8851 43.7891 57.8775 42.4979 58.6106C41.2141 59.3364 39.5615 59.6993 37.5546 59.6993ZM52.2961 60.04L50.5327 42.8434L56.3983 39.8958L57.6895 53.9967C58.6855 53.9227 59.4898 53.7598 60.1095 53.508C60.7293 53.2561 61.2015 52.9229 61.5335 52.5082C61.8581 52.0934 62.0869 51.6046 62.2123 51.0344C62.3377 50.4641 62.4041 49.8346 62.4189 49.1459C62.4336 48.4497 62.4263 47.7017 62.4041 46.8944V45.6502C62.4041 45.0207 62.323 44.5023 62.1533 44.1024C61.9836 43.7025 61.7622 43.3914 61.4892 43.1767C61.2162 42.9619 60.899 42.8582 60.5375 42.8582H50.5327L49.9572 37.7925H60.9728C63.3485 37.7925 65.1709 38.4961 66.4473 39.9106C67.7237 41.3252 68.3951 43.2655 68.4616 45.7317L68.4984 47.0574C68.5648 49.3977 68.2476 51.3824 67.5467 52.9895C66.8457 54.604 65.798 55.9149 64.3962 56.9221C62.9944 57.9293 61.2753 58.6847 59.2463 59.1883C57.2099 59.6771 54.8932 59.9659 52.2961 60.04ZM69.0739 61.3212L68.2255 55.9889L77.1013 54.1375C78.0974 53.9375 78.8721 53.5672 79.4402 53.0192C80.0083 52.4785 80.4289 51.7676 80.7092 50.8862C80.9896 50.0049 81.1814 48.9311 81.27 47.6721C81.3585 46.4131 81.4028 44.9541 81.388 43.31C81.3733 41.6584 81.3733 39.8144 81.3733 37.7703H87.475C87.475 40.0662 87.4381 42.2139 87.3717 44.2135C87.3053 46.2205 87.1208 48.0572 86.8109 49.7309C86.5084 51.4047 85.9993 52.9007 85.2837 54.2115C84.5754 55.5224 83.5646 56.6333 82.266 57.5368C80.9675 58.4403 79.2779 59.1217 77.1972 59.5808L69.0739 61.3212ZM73.4049 55.6557L69.6421 37.7777H75.8102L79.2705 55.6557H73.4049ZM89.2014 42.8434V32.5565H94.6908V42.836H89.2014V42.8434ZM92.7946 59.6623L98.6233 42.8434H89.2014V37.7777H104.791V43.3692L98.9627 59.6623H92.7946ZM120.89 59.6623V44.5394C120.89 43.9617 120.765 43.5321 120.514 43.2507C120.263 42.9767 119.88 42.836 119.363 42.836H112.413V37.7703H121.127C122.255 37.7703 123.266 38.0073 124.159 38.4887C125.052 38.9701 125.76 39.7329 126.276 40.7771C126.793 41.8214 127.059 43.2063 127.059 44.9171V59.6549H120.89V59.6623ZM129.124 59.6623V42.1991L128.748 37.7777H134.879L135.285 42.1991V59.6623H129.124ZM137.329 42.8434V32.5565H142.818V42.836H137.329V42.8434ZM140.922 59.6623L146.751 42.8434H137.329V37.7777H152.919V43.3692L147.09 59.6623H140.922ZM162.54 59.6623V47.2647C162.54 46.2353 162.628 45.3392 162.813 44.5838C162.99 43.8284 163.234 43.2507 163.521 42.8434H155.287V37.7777H171.925V42.8434H169.247C169.018 43.4729 168.87 44.1987 168.804 45.0133C168.738 45.8354 168.701 46.5834 168.701 47.2647V59.6623H162.54ZM174.234 60.4547L171.999 55.0854C173.74 54.5078 175.142 53.7968 176.219 52.9525C177.289 52.1082 178.064 51.1825 178.543 50.1753L180.579 53.5746C180.152 54.6114 179.679 55.5668 179.17 56.4481C178.661 57.3294 178.019 58.107 177.237 58.7736C176.455 59.4401 175.452 60.003 174.234 60.4547ZM179.827 59.6623L178.469 50.7011V44.5764C178.469 43.7691 178.344 43.2507 178.093 43.0063C177.842 42.7693 177.495 42.6212 177.045 42.5694L174.943 42.2657L175.688 37.2741L180.329 37.9184C181.73 38.0962 182.8 38.6664 183.531 39.6366C184.261 40.6068 184.63 41.9769 184.63 43.7395V50.8492L185.648 59.6549H179.827V59.6623ZM187.891 59.6623L190.164 45.1837L187.419 37.7777H193.823L195.992 45.5614L194.059 59.6623H187.891ZM195.955 59.6993L196.494 54.6337C198.073 55.0114 199.261 55.004 200.05 54.6114C200.84 54.2189 201.378 53.5228 201.659 52.5156C201.939 51.5083 202.079 50.2864 202.079 48.8496C202.079 47.4351 201.969 46.2797 201.755 45.3688C201.541 44.4653 201.201 43.7914 200.736 43.347C200.272 42.91 199.659 42.6879 198.892 42.6879C198.442 42.6879 198.007 42.7915 197.586 42.9915C197.165 43.1915 196.811 43.5025 196.516 43.9173C196.221 44.332 196.044 44.88 195.978 45.5614L194.686 42.8434C195.137 40.903 195.867 39.4959 196.87 38.6294C197.874 37.7629 199.003 37.326 200.242 37.326C201.555 37.326 202.684 37.5778 203.651 38.0814C204.61 38.585 205.407 39.3256 206.041 40.3106C206.676 41.2955 207.141 42.5027 207.451 43.9395C207.753 45.3762 207.908 47.0129 207.908 48.8496C207.908 51.5454 207.436 53.8264 206.499 55.6927C205.562 57.559 204.197 58.8625 202.411 59.603C200.648 60.351 198.486 60.3807 195.955 59.6993Z" fill="#143B51"/>
<path d="M23.4403 0L25.5283 29.2979H92.5954L143.054 29.1054L23.4403 0Z" fill="#FEDD00"/>
<path d="M43.767 75L43.6932 74.5408C44.1212 74.5038 44.4606 74.3927 44.7188 74.2076C44.977 74.0224 45.1541 73.7632 45.2722 73.4373C45.3828 73.1115 45.4345 72.7264 45.4271 72.282V65.4908H48.5923C49.1014 65.4908 49.5441 65.5944 49.9204 65.7944C50.2967 66.0018 50.5918 66.335 50.7984 66.7942C51.005 67.2534 51.1156 67.8755 51.1156 68.6457V74.7852H50.6287V68.6531C50.6287 67.6533 50.4368 66.9646 50.0532 66.5794C49.6695 66.2017 49.1752 66.0092 48.5628 66.0092H45.9141V72.2672C45.9141 72.8004 45.8403 73.267 45.6927 73.6595C45.5451 74.052 45.3164 74.3557 45.0065 74.5779C44.6893 74.8 44.2761 74.9408 43.767 75ZM53.1594 74.7926V67.4904L52.9454 65.4908H53.4324L53.6463 67.4904V74.7926H53.1594ZM59.7702 74.7926V68.6531C59.7702 67.6533 59.5783 66.9646 59.1947 66.5794C58.811 66.2017 58.3167 66.0092 57.7043 66.0092H55.181V65.4982H57.7338C58.2429 65.4982 58.6856 65.6019 59.0619 65.8018C59.4381 66.0092 59.7333 66.3424 59.9399 66.8016C60.1464 67.2608 60.2571 67.8829 60.2571 68.6531V74.7926H59.7702ZM66.5949 74.7926V68.6531C66.5949 67.6533 66.4031 66.9646 66.0194 66.5794C65.6358 66.2017 65.1414 66.0092 64.529 66.0092H61.9467V65.4982H64.5659C65.075 65.4982 65.5177 65.6019 65.894 65.8018C66.2703 66.0092 66.5654 66.3424 66.772 66.8016C66.9786 67.2608 67.0893 67.8829 67.0893 68.6531V74.7926H66.5949ZM61.9467 74.7926V74.2816H68.2181V74.7926H61.9467ZM75.0207 74.7926V68.9938C75.0207 67.0016 74.3346 66.0092 72.9549 66.0092H69.5093V65.4982H72.9844C73.5377 65.4982 74.0026 65.6315 74.3788 65.8907C74.7551 66.1499 75.0355 66.5424 75.2273 67.0608C75.4192 67.5792 75.5077 68.2236 75.5077 68.9938V74.7926H75.0207ZM69.5167 74.7926V65.4982H70.0036V74.8H69.5167V74.7926ZM79.3369 75L79.2632 74.5408C79.6911 74.5038 80.0305 74.3927 80.2887 74.2076C80.5469 74.0224 80.724 73.7632 80.8421 73.4373C80.9527 73.1115 81.0044 72.7264 80.997 72.282V65.4908H84.1622C84.6713 65.4908 85.114 65.5944 85.4903 65.7944C85.8666 66.0018 86.1617 66.335 86.3683 66.7942C86.5749 67.2534 86.6855 67.8755 86.6855 68.6457V74.7852H86.1986V68.6531C86.1986 67.6533 86.0068 66.9646 85.6231 66.5794C85.2394 66.2017 84.7451 66.0092 84.1327 66.0092H81.484V72.2672C81.484 72.8004 81.4102 73.267 81.2626 73.6595C81.1151 74.052 80.8863 74.3557 80.5765 74.5779C80.2592 74.8 79.846 74.9408 79.3369 75ZM93.9456 74.7926V68.9938C93.9456 67.0016 93.2594 66.0092 91.8797 66.0092H88.4342V65.4982H91.9093C92.4626 65.4982 92.9274 65.6315 93.3037 65.8907C93.68 66.1499 93.9604 66.5424 94.1522 67.0608C94.344 67.5792 94.4326 68.2236 94.4326 68.9938V74.7926H93.9456ZM88.4415 74.7926V65.4982H88.9285V74.8H88.4415V74.7926ZM100.77 74.7926V68.6531C100.77 67.6533 100.579 66.9646 100.195 66.5794C99.8112 66.2017 99.3169 66.0092 98.7045 66.0092H96.1222V65.4982H98.7414C99.2505 65.4982 99.6932 65.6019 100.069 65.8018C100.446 66.0092 100.741 66.3424 100.947 66.8016C101.154 67.2608 101.265 67.8829 101.265 68.6531V74.7926H100.77ZM96.1222 74.7926V74.2816H102.394V74.7926H96.1222ZM104.489 74.963L103.463 65.4908H103.95L104.932 74.4001C105.751 74.3409 106.481 74.1779 107.145 73.9039C107.802 73.6299 108.37 73.23 108.842 72.7042C109.314 72.1783 109.676 71.497 109.927 70.6675C110.177 69.8381 110.296 68.8383 110.288 67.6829L110.273 65.4982H110.76L110.775 67.6829C110.782 69.3196 110.546 70.6675 110.067 71.7192C109.58 72.7708 108.872 73.5632 107.935 74.0891C106.99 74.6149 105.847 74.9111 104.489 74.963ZM104.43 71.4155L104.319 70.9045C104.91 70.5268 105.389 70.1565 105.765 69.7936C106.134 69.4307 106.415 68.9864 106.599 68.468C106.784 67.9495 106.887 67.2904 106.902 66.4832L106.916 65.5426H107.403L107.389 66.4832C107.366 67.3719 107.248 68.1125 107.034 68.6975C106.82 69.29 106.496 69.7936 106.068 70.2084C105.647 70.6305 105.101 71.0304 104.43 71.4155ZM117.674 74.7926V68.6531C117.674 67.6533 117.482 66.9646 117.098 66.5794C116.715 66.2017 116.22 66.0092 115.608 66.0092H112.302V65.4982H115.637C116.146 65.4982 116.589 65.6019 116.965 65.8018C117.342 66.0092 117.637 66.3424 117.843 66.8016C118.05 67.2608 118.161 67.8829 118.161 68.6531V74.7926H117.674ZM112.339 74.7926V70.2232L112.413 69.0826H112.826V70.2232V74.7926H112.339ZM119.695 66.0092V62.5654H120.182V66.0092H119.695ZM121.577 74.7926L124.668 66.0092H119.695V65.4982H125.155V66.0092L122.064 74.7926H121.577ZM134.503 74.7926V68.6531C134.503 67.6533 134.311 66.9646 133.928 66.5794C133.544 66.2017 133.05 66.0092 132.437 66.0092H129.132V65.4982H132.467C132.976 65.4982 133.419 65.6019 133.795 65.8018C134.171 66.0092 134.466 66.3424 134.673 66.8016C134.879 67.2608 134.99 67.8829 134.99 68.6531V74.7926H134.503ZM129.161 74.7926V70.2232L129.235 69.0826H129.648V70.2232V74.7926H129.161ZM141.114 74.7926V68.6531C141.114 67.6533 140.922 66.9646 140.538 66.5794C140.155 66.2017 139.66 66.0092 139.048 66.0092H136.525V65.4982H139.078C139.587 65.4982 140.029 65.6019 140.406 65.8018C140.782 66.0092 141.077 66.3424 141.284 66.8016C141.49 67.2608 141.601 67.8829 141.601 68.6531V74.7926H141.114ZM147.931 74.7926V68.6531C147.931 67.6533 147.739 66.9646 147.356 66.5794C146.972 66.2017 146.478 66.0092 145.865 66.0092H143.283V65.4982H145.902C146.411 65.4982 146.854 65.6019 147.23 65.8018C147.607 66.0092 147.902 66.3424 148.108 66.8016C148.315 67.2608 148.426 67.8829 148.426 68.6531V74.7926H147.931ZM143.283 74.7926V74.2816H149.555V74.7926H143.283ZM156.365 74.7926V68.9938C156.365 67.0016 155.678 66.0092 154.299 66.0092H150.853V65.4982H154.328C154.882 65.4982 155.346 65.6315 155.723 65.8907C156.099 66.1499 156.379 66.5424 156.571 67.0608C156.763 67.5792 156.851 68.2236 156.851 68.9938V74.7926H156.365ZM150.853 74.7926V65.4982H151.34V74.8H150.853V74.7926ZM163.979 74.7926V68.6531C163.979 67.6533 163.787 66.9646 163.403 66.5794C163.02 66.2017 162.525 66.0092 161.913 66.0092H158.607V65.4982H161.942C162.451 65.4982 162.894 65.6019 163.27 65.8018C163.647 66.0092 163.942 66.3424 164.148 66.8016C164.355 67.2608 164.466 67.8829 164.466 68.6531V74.7926H163.979ZM158.644 74.7926V70.2232L158.718 69.0826H159.131V70.2232V74.7926H158.644Z" fill="#143B51"/>
</svg>
